<svg xmlns="http://www.w3.org/2000/svg" version="1.1" xmlns:xlink="http://www.w3.org/1999/xlink" xmlns:svgjs="http://svgjs.com/svgjs" width="1440" height="560" preserveAspectRatio="none" viewBox="0 0 1440 560"><g mask="url(&quot;#SvgjsMask1004&quot;)" fill="none"><rect width="1440" height="560" x="0" y="0" fill="#0e2a47"></rect><path d="M0,581.793C106.776,571.371,169.833,461.295,252.551,392.977C324.368,333.662,405.37,286.837,453.606,207.155C505.832,120.881,549.973,22.801,537.198,-77.237C524.353,-177.823,442.838,-250.245,384.595,-333.253C319.126,-426.56,282.181,-556.898,174.472,-594.196C66.638,-631.538,-46.581,-561.802,-152.46,-519.23C-249.211,-480.328,-338.884,-431.208,-413.093,-357.947C-492.103,-279.947,-558.205,-190.844,-592.166,-85.141C-630.543,34.305,-681.545,173.94,-618.907,282.645C-556.004,391.811,-399.791,390.748,-286.355,445.577C-189.221,492.527,-107.376,592.273,0,581.793" fill="#091b2e"></path><path d="M1440 882.933C1507.937 882.688 1574.632 890.99 1639.267 870.066 1719.0059999999999 844.2529999999999 1816.125 823.844 1853.8 748.976 1891.4189999999999 674.22 1840.5 586.772 1823.01 504.932 1806.778 428.97900000000004 1798.497 351.38300000000004 1755.07 286.99 1708.036 217.25 1649.723 143.45499999999998 1567.44 125.98000000000002 1486.046 108.69400000000002 1409.483 163.437 1333.551 197.46800000000002 1267.32 227.152 1205.054 260.686 1153.313 311.584 1098.02 365.977 1034.911 423.41700000000003 1025.589 500.41700000000003 1016.309 577.069 1066.101 646.255 1104.703 713.125 1140.113 774.465 1176.623 839.504 1239.809 871.504 1300.67 902.326 1371.779 883.179 1440 882.933" fill="#133960"></path></g><defs><mask id="SvgjsMask1004"><rect width="1440" height="560" fill="#ffffff"></rect></mask></defs></svg>