<svg xmlns="http://www.w3.org/2000/svg" version="1.1" xmlns:xlink="http://www.w3.org/1999/xlink" xmlns:svgjs="http://svgjs.com/svgjs" width="1440" height="560" preserveAspectRatio="none" viewBox="0 0 1440 560">
    <g mask="url(&quot;#SvgjsMask1692&quot;)" fill="none">
        <rect width="1440" height="560" x="0" y="0" fill="url(#SvgjsLinearGradient1693)"></rect>
        <path d="M0 0L248.66 0L0 40.17z" fill="rgba(255, 255, 255, .1)"></path>
        <path d="M0 40.17L248.66 0L894.8 0L0 144.94z" fill="rgba(255, 255, 255, .075)"></path>
        <path d="M0 144.94L894.8 0L912.5 0L0 384.96000000000004z" fill="rgba(255, 255, 255, .05)"></path>
        <path d="M0 384.96000000000004L912.5 0L1286.85 0L0 425.76000000000005z" fill="rgba(255, 255, 255, .025)"></path>
        <path d="M1440 560L1383.04 560L1440 469.33z" fill="rgba(0, 0, 0, .1)"></path>
        <path d="M1440 469.33L1383.04 560L743.8399999999999 560L1440 271.89z" fill="rgba(0, 0, 0, .075)"></path>
        <path d="M1440 271.89L743.8399999999999 560L399.7799999999999 560L1440 183.63z" fill="rgba(0, 0, 0, .05)"></path>
        <path d="M1440 183.63L399.78 560L285.84999999999997 560L1440 71.02z" fill="rgba(0, 0, 0, .025)"></path>
    </g>
    <defs>
        <mask id="SvgjsMask1692">
            <rect width="1440" height="560" fill="#ffffff"></rect>
        </mask>
        <linearGradient x1="15.28%" y1="-39.29%" x2="84.72%" y2="139.29%" gradientUnits="userSpaceOnUse" id="SvgjsLinearGradient1693">
            <stop stop-color="rgba(14, 42, 71, 1)" offset="0.03"></stop>
            <stop stop-color="rgba(42, 44, 48, 1)" offset="0.42"></stop>
        </linearGradient>
    </defs>
</svg>