<svg xmlns="http://www.w3.org/2000/svg" version="1.1" xmlns:xlink="http://www.w3.org/1999/xlink" xmlns:svgjs="http://svgjs.com/svgjs" width="1440" height="560" preserveAspectRatio="none" viewBox="0 0 1440 560"><g mask="url(&quot;#SvgjsMask1110&quot;)" fill="none"><path d="M 0,36 C 72,58.4 216,142.8 360,148 C 504,153.2 576,69.4 720,62 C 864,54.6 936,113.8 1080,111 C 1224,108.2 1368,60.6 1440,48L1440 560L0 560z" fill="rgba(181, 179, 178, 1)"></path><path d="M 0,274 C 57.6,289.4 172.8,363.6 288,351 C 403.2,338.4 460.8,217.6 576,211 C 691.2,204.4 748.8,313.2 864,318 C 979.2,322.8 1036.8,238.8 1152,235 C 1267.2,231.2 1382.4,286.2 1440,299L1440 560L0 560z" fill="rgba(51, 55, 59, 1)"></path><path d="M 0,510 C 36,490 108,404.8 180,410 C 252,415.2 288,533.4 360,536 C 432,538.6 468,427.2 540,423 C 612,418.8 648,516.2 720,515 C 792,513.8 828,422.2 900,417 C 972,411.8 1008,481 1080,489 C 1152,497 1188,454.4 1260,457 C 1332,459.6 1404,493 1440,502L1440 560L0 560z" fill="rgba(0, 0, 0, 1)"></path></g><defs><mask id="SvgjsMask1110"><rect width="1440" height="560" fill="#ffffff"></rect></mask></defs></svg>