<svg xmlns="http://www.w3.org/2000/svg" version="1.1" xmlns:xlink="http://www.w3.org/1999/xlink" xmlns:svgjs="http://svgjs.com/svgjs" width="1440" height="560" preserveAspectRatio="none" viewBox="0 0 1440 560">
    <g mask="url(&quot;#SvgjsMask1099&quot;)" fill="none">
        <rect width="1440" height="560" x="0" y="0" fill="rgba(26, 55, 84, 1)"></rect>
        <path d="M 0,188 C 72,160.6 216,44.4 360,51 C 504,57.6 576,230.6 720,221 C 864,211.4 936,16 1080,3 C 1224,-10 1368,125.4 1440,156L1440 560L0 560z" fill="rgba(23, 67, 112, 1)"></path>
        <path d="M 0,503 C 96,465.2 288,304.4 480,314 C 672,323.6 768,536.8 960,551 C 1152,565.2 1344,418.2 1440,385L1440 560L0 560z" fill="rgba(255, 255, 255, 1)"></path>
    </g>
    <defs>
        <mask id="SvgjsMask1099">
            <rect width="1440" height="560" fill="#ffffff"></rect>
        </mask>
    </defs>
</svg>