<svg xmlns="http://www.w3.org/2000/svg" version="1.1" xmlns:xlink="http://www.w3.org/1999/xlink" xmlns:svgjs="http://svgjs.com/svgjs" width="1440" height="560" preserveAspectRatio="none" viewBox="0 0 1440 560"><g mask="url(&quot;#SvgjsMask1031&quot;)" fill="none"><path d="M 0,15 C 17,43.4 51,158.6 85,157 C 119,155.4 136,1.4 170,7 C 204,12.6 221,180.4 255,185 C 289,189.6 306,48 340,30 C 374,12 391,85 425,95 C 459,105 476,79 510,80 C 544,81 561,104 595,100 C 629,96 646,55.8 680,60 C 714,64.2 731,124.4 765,121 C 799,117.6 816,35.8 850,43 C 884,50.2 901,159.6 935,157 C 969,154.4 986,40.8 1020,30 C 1054,19.2 1071,105 1105,103 C 1139,101 1156,11.2 1190,20 C 1224,28.8 1241,132.8 1275,147 C 1309,161.2 1327,100.4 1360,91 C 1393,81.6 1424,98.2 1440,100L1440 560L0 560z" fill="rgba(181, 179, 178, 1)"></path><path d="M 0,341 C 18,316.6 54,223.4 90,219 C 126,214.6 144,321.8 180,319 C 216,316.2 234,205.2 270,205 C 306,204.8 324,318.6 360,318 C 396,317.4 414,204.8 450,202 C 486,199.2 504,304.4 540,304 C 576,303.6 594,197.2 630,200 C 666,202.8 684,312 720,318 C 756,324 774,233.2 810,230 C 846,226.8 864,303 900,302 C 936,301 954,217 990,225 C 1026,233 1044,343.2 1080,342 C 1116,340.8 1134,219.2 1170,219 C 1206,218.8 1224,329.2 1260,341 C 1296,352.8 1314,273.2 1350,278 C 1386,282.8 1422,347.6 1440,365L1440 560L0 560z" fill="rgba(51, 55, 59, 1)"></path><path d="M 0,448 C 19.2,452.8 57.6,484 96,472 C 134.4,460 153.6,388 192,388 C 230.4,388 249.6,467.8 288,472 C 326.4,476.2 345.6,406.6 384,409 C 422.4,411.4 441.6,490.8 480,484 C 518.4,477.2 537.6,365.8 576,375 C 614.4,384.2 633.6,524.4 672,530 C 710.4,535.6 729.6,408.6 768,403 C 806.4,397.4 825.6,498.6 864,502 C 902.4,505.4 921.6,415.8 960,420 C 998.4,424.2 1017.6,530 1056,523 C 1094.4,516 1113.6,387.2 1152,385 C 1190.4,382.8 1209.6,507 1248,512 C 1286.4,517 1305.6,415 1344,410 C 1382.4,405 1420.8,471.6 1440,487L1440 560L0 560z" fill="rgba(0, 0, 0, 1)"></path></g><defs><mask id="SvgjsMask1031"><rect width="1440" height="560" fill="#ffffff"></rect></mask></defs></svg>