<svg xmlns="http://www.w3.org/2000/svg" version="1.1" xmlns:xlink="http://www.w3.org/1999/xlink" xmlns:svgjs="http://svgjs.com/svgjs" width="1440" height="560" preserveAspectRatio="none" viewBox="0 0 1440 560"><g mask="url(&quot;#SvgjsMask1109&quot;)" fill="none"><path d="M 0,42 C 96,55 288,106.2 480,107 C 672,107.8 768,50 960,46 C 1152,42 1344,78.8 1440,87L1440 560L0 560z" fill="rgba(200, 200, 200, 0.58)"></path><path d="M 0,268 C 72,242.8 216,145.4 360,142 C 504,138.6 576,244 720,251 C 864,258 936,181.2 1080,177 C 1224,172.8 1368,219.4 1440,230L1440 560L0 560z" fill="rgba(181, 179, 178, 1)"></path><path d="M 0,290 C 57.6,304.8 172.8,354 288,364 C 403.2,374 460.8,335.2 576,340 C 691.2,344.8 748.8,386.4 864,388 C 979.2,389.6 1036.8,344.8 1152,348 C 1267.2,351.2 1382.4,392.8 1440,404L1440 560L0 560z" fill="rgba(51, 55, 59, 1)"></path><path d="M 0,528 C 36,515.4 108,461.2 180,465 C 252,468.8 288,551 360,547 C 432,543 468,446 540,445 C 612,444 648,543.8 720,542 C 792,540.2 828,433.2 900,436 C 972,438.8 1008,545.8 1080,556 C 1152,566.2 1188,488.4 1260,487 C 1332,485.6 1404,536.6 1440,549L1440 560L0 560z" fill="rgba(0, 0, 0, 1)"></path></g><defs><mask id="SvgjsMask1109"><rect width="1440" height="560" fill="#ffffff"></rect></mask></defs></svg>